<?xml version="1.0" encoding="UTF-8"?>
<svg version="1.1" xmlns="http://www.w3.org/2000/svg" width="324" height="150">
<path d="M0 0 C8.19415142 7.6114562 11.403884 17.84660798 12.3125 28.75 C11.9741646 38.7408454 9.10042032 48.05420254 3 56 C0.125 58.625 0.125 58.625 -2 60 C-4 59 -4 59 -5.140625 56.1640625 C-5.50671875 54.99617188 -5.8728125 53.82828125 -6.25 52.625 C-6.62640625 51.46226563 -7.0028125 50.29953125 -7.390625 49.1015625 C-8 46 -8 46 -6 43 C-3.43102584 33.33780274 -3.20540661 23.11351046 -6.90234375 13.703125 C-9.59951097 9.21104579 -13.519912 7.25988184 -18.38671875 5.6015625 C-24.61665638 4.16746624 -29.30537974 5.27900455 -34.8125 8.4375 C-39.77786849 12.12680351 -41.82920646 15.96769952 -43 22 C-43.86064272 30.93256545 -44.15822253 40.23214418 -39 48 C-34.62300024 52.77387798 -29.22757247 54.05386087 -23 55 C-23.66 52.69 -24.32 50.38 -25 48 C-23.42274653 47.29866401 -21.83788667 46.614417 -20.25 45.9375 C-19.36828125 45.55464844 -18.4865625 45.17179687 -17.578125 44.77734375 C-15 44 -15 44 -12.7890625 44.0390625 C-11 45 -11 45 -9.9453125 47.37109375 C-9.67460937 48.38300781 -9.40390625 49.39492187 -9.125 50.4375 C-5.78373065 61.44403434 -0.19069888 69.84987754 9.73046875 75.86328125 C13.63961996 77.82122101 17.7735025 78.93471477 22 80 C21.3709375 79.76925781 20.741875 79.53851563 20.09375 79.30078125 C8.19352631 74.76650927 8.19352631 74.76650927 4 71 C3.28515625 68.84375 3.28515625 68.84375 3 67 C8.4952607 68.01062266 13.83031819 69.57214516 19.2109375 71.0625 C27.01975114 72.9945776 34.43918973 73.12420803 42.4375 73.0625 C43.55060547 73.05798828 44.66371094 73.05347656 45.81054688 73.04882812 C48.54042101 73.03711193 51.27018174 73.02070699 54 73 C53.67 73.66 53.34 74.32 53 75 C53.5978833 74.81969238 54.1957666 74.63938477 54.81176758 74.45361328 C61.09483167 72.56315536 67.38490852 70.69931375 73.6875 68.875 C74.58533203 68.61074219 75.48316406 68.34648438 76.40820312 68.07421875 C84.47881858 65.74467846 92.05810957 64.81915559 100.4375 64.8125 C101.64889648 64.79413086 101.64889648 64.79413086 102.88476562 64.77539062 C112.49592567 64.75215656 122.31765513 67.05496163 129.74609375 73.51953125 C132.47016217 76.5677098 133 77.81266592 133 82 C132.34 81.731875 131.68 81.46375 131 81.1875 C130.01 80.795625 129.02 80.40375 128 80 C126.865625 79.46375 125.73125 78.9275 124.5625 78.375 C106.65049037 71.99898189 81.90856706 80.56952493 64.99755859 87.21630859 C46.21308115 94.58592147 26.89052734 99.886783 7 93 C-1.7006162 88.98197879 -9.66843505 84.25210138 -13.859375 75.32421875 C-15.30837286 72.37163749 -16.61016582 70.28992472 -19 68 C-21.71174515 67.59293892 -23.92594164 67.4492824 -26.625 67.5 C-36.03307062 67.2715972 -42.29775089 64.74160215 -49.3125 58.3125 C-58.60888242 48.39510418 -59.46656813 37.85462025 -59.27734375 24.9453125 C-58.89863016 14.88019817 -54.25763204 7.34243256 -47.3046875 0.27734375 C-34.20105378 -11.68045653 -13.3552175 -10.93615924 0 0 Z M36 79 C36 79.33 36 79.66 36 80 C40.455 79.505 40.455 79.505 45 79 C41.16380575 78.04095144 39.67568464 78.08107884 36 79 Z " fill="#2492CB" transform="translate(151,31)"/>
<path d="M0 0 C1.93166016 0.01740234 1.93166016 0.01740234 3.90234375 0.03515625 C5.19269531 0.04417969 6.48304687 0.05320312 7.8125 0.0625 C8.81152344 0.07410156 9.81054688 0.08570312 10.83984375 0.09765625 C15.4721702 10.29863046 19.4000053 20.63243183 23.05737305 31.21679688 C25.06923022 37.00068586 27.2110304 42.71657235 29.46484375 48.41015625 C31.70808285 54.10081373 33.86469396 59.80786662 35.83984375 65.59765625 C36.25234375 66.80421875 36.66484375 68.01078125 37.08984375 69.25390625 C37.83984375 72.09765625 37.83984375 72.09765625 36.83984375 74.09765625 C32.54984375 74.09765625 28.25984375 74.09765625 23.83984375 74.09765625 C20.74972514 68.08445246 18.23378345 62.48149545 15.83984375 56.09765625 C7.25984375 56.09765625 -1.32015625 56.09765625 -10.16015625 56.09765625 C-10.82015625 59.06765625 -11.48015625 62.03765625 -12.16015625 65.09765625 C-13.00375643 67.89840884 -14.00266742 70.39684899 -15.16015625 73.09765625 C-17.88038703 74.45777164 -20.12634435 74.30389935 -23.16015625 74.34765625 C-24.23265625 74.3734375 -25.30515625 74.39921875 -26.41015625 74.42578125 C-27.31765625 74.3175 -28.22515625 74.20921875 -29.16015625 74.09765625 C-29.82015625 73.10765625 -30.48015625 72.11765625 -31.16015625 71.09765625 C-30.41015625 68.47265625 -30.41015625 68.47265625 -29.16015625 66.09765625 C-28.17015625 65.60265625 -28.17015625 65.60265625 -27.16015625 65.09765625 C-26.64556682 63.16330874 -26.64556682 63.16330874 -26.33984375 60.80859375 C-25.17323852 54.41159472 -22.79096936 48.6986187 -20.28515625 42.72265625 C-17.29398786 35.51544934 -14.51495608 28.32753326 -12.10253906 20.90527344 C-10.73498213 16.83094579 -9.1334575 12.87219844 -7.47265625 8.91015625 C-7.16521484 8.16185547 -6.85777344 7.41355469 -6.54101562 6.64257812 C-3.83299821 0.11844865 -3.83299821 0.11844865 0 0 Z M2.83984375 17.09765625 C-0.13015625 25.67765625 -3.10015625 34.25765625 -6.16015625 43.09765625 C0.10984375 43.09765625 6.37984375 43.09765625 12.83984375 43.09765625 C10.14699311 34.27109028 7.4909768 25.58297105 3.83984375 17.09765625 C3.50984375 17.09765625 3.17984375 17.09765625 2.83984375 17.09765625 Z " fill="#4CADE3" transform="translate(51.16015625,23.90234375)"/>
<path d="M0 0 C1.093125 0.00257812 2.18625 0.00515625 3.3125 0.0078125 C4.405625 0.00523438 5.49875 0.00265625 6.625 0 C9.3125 0.1328125 9.3125 0.1328125 10.3125 1.1328125 C10.41920215 2.56347766 10.45869043 3.99924549 10.47021484 5.43383789 C10.48047699 6.34891617 10.49073914 7.26399445 10.50131226 8.20680237 C10.50861359 9.20461227 10.51591492 10.20242218 10.5234375 11.23046875 C10.55152548 13.33268982 10.58019006 15.43490325 10.609375 17.53710938 C10.65051352 20.85928986 10.68738857 24.1813307 10.71386719 27.50366211 C10.74160757 30.70456739 10.78750281 33.9048184 10.8359375 37.10546875 C10.83919037 38.08910904 10.84244324 39.07274933 10.84579468 40.0861969 C10.9526815 46.13264493 11.88379351 50.58949691 14.3125 56.1328125 C14.6425 57.1228125 14.9725 58.1128125 15.3125 59.1328125 C19.84012826 61.90781047 25.18667641 61.75711153 30.3125 61.1328125 C33.85526706 59.71570567 35.65807487 58.64130911 37.20100403 55.08474731 C39.18966873 48.59884917 39.77996067 42.63815144 39.82421875 35.875 C39.84216995 34.84593536 39.86012115 33.81687073 39.87861633 32.75662231 C39.93229837 29.50705931 39.96647923 26.25763956 40 23.0078125 C40.03321027 20.78904274 40.06770329 18.57029179 40.10351562 16.3515625 C40.18799997 10.94544116 40.25652575 5.53930025 40.3125 0.1328125 C42.45826637 0.10595312 44.60412645 0.08648162 46.75 0.0703125 C47.94496094 0.05871094 49.13992187 0.04710938 50.37109375 0.03515625 C53.3125 0.1328125 53.3125 0.1328125 54.3125 1.1328125 C54.42141989 2.68069615 54.4615472 4.23349221 54.47363281 5.78515625 C54.48324036 6.77708984 54.4928479 7.76902344 54.50274658 8.79101562 C54.50699646 9.87318359 54.51124634 10.95535156 54.515625 12.0703125 C54.52132507 13.17955078 54.52702515 14.28878906 54.53289795 15.43164062 C54.54236963 17.78888998 54.54889049 20.14615271 54.55273438 22.50341797 C54.56238416 26.08975911 54.59336428 29.67551366 54.625 33.26171875 C54.63153541 35.55207993 54.63678377 37.84244522 54.640625 40.1328125 C54.6529718 41.19878662 54.6653186 42.26476074 54.67803955 43.36303711 C54.64769049 53.64912904 52.33367004 61.48753845 45.3125 69.1328125 C38.57771493 75.22618947 29.2484602 75.42142965 20.5625 75.0078125 C11.54591755 74.0502041 6.41809998 71.10773475 0.71875 64.07421875 C-4.68817032 56.60966486 -3.83808186 46.71345048 -3.8203125 37.88671875 C-3.82126923 36.83499985 -3.82222595 35.78328094 -3.82321167 34.69969177 C-3.82388877 32.49193257 -3.82206743 30.28417133 -3.81787109 28.07641602 C-3.81247847 24.68175874 -3.81785117 21.28723152 -3.82421875 17.89257812 C-3.82355862 15.74479137 -3.82227882 13.5970047 -3.8203125 11.44921875 C-3.82233673 10.42953506 -3.82436096 9.40985138 -3.82644653 8.35926819 C-3.82329437 7.42416916 -3.82014221 6.48907013 -3.81689453 5.52563477 C-3.81609894 4.69927017 -3.81530334 3.87290558 -3.81448364 3.02149963 C-3.61055542 -0.01162027 -3.06286745 0.15136264 0 0 Z " fill="#4AAEE6" transform="translate(175.6875,23.8671875)"/>
<path d="M0 0 C2.26921536 -0.13489391 4.5407067 -0.23193995 6.8125 -0.3125 C8.70935547 -0.39951172 8.70935547 -0.39951172 10.64453125 -0.48828125 C14 0 14 0 15.70703125 1.93359375 C16.34705078 3.45146484 16.34705078 3.45146484 17 5 C17.44001343 6.01211548 17.44001343 6.01211548 17.88891602 7.04467773 C18.92575127 9.47310271 19.90558218 11.91890987 20.875 14.375 C21.23086182 15.26985107 21.58672363 16.16470215 21.95336914 17.08666992 C24.39413082 23.29038811 26.54540454 29.52622926 28.578125 35.875 C30.70473047 42.26128025 33.31757298 48.48441126 35.87866211 54.70629883 C38.27192906 60.64846972 40.36161935 66.5839019 41 73 C40 74 40 74 37.34765625 74.1328125 C36.26355469 74.13023438 35.17945313 74.12765625 34.0625 74.125 C32.44021484 74.12886719 32.44021484 74.12886719 30.78515625 74.1328125 C28 74 28 74 26 73 C25.03474432 70.71263654 24.17935414 68.46791525 23.375 66.125 C23.14554687 65.48691406 22.91609375 64.84882812 22.6796875 64.19140625 C21.67513402 61.32723295 21 59.05749257 21 56 C20.25314941 56.00523682 19.50629883 56.01047363 18.73681641 56.01586914 C15.36621943 56.03660401 11.99563586 56.04964899 8.625 56.0625 C6.8615625 56.07506836 6.8615625 56.07506836 5.0625 56.08789062 C3.94101562 56.09111328 2.81953125 56.09433594 1.6640625 56.09765625 C0.10872803 56.10551147 0.10872803 56.10551147 -1.47802734 56.11352539 C-4 56 -4 56 -6 55 C-6.99 58.3 -7.98 61.6 -9 65 C-16.425 65.99 -16.425 65.99 -24 67 C-21.63159934 54.51206925 -16.58254562 42.92759487 -11.81542969 31.20751953 C-9.69976186 25.94066284 -7.86572327 20.72883115 -6.5703125 15.19140625 C-5.91437005 12.67096986 -5.094758 10.36386635 -4 8 C-3.34 7.67 -2.68 7.34 -2 7 C-1.61781233 5.34385343 -1.28604898 3.67542976 -1 2 C-0.67 1.34 -0.34 0.68 0 0 Z M7 18 C0.93315324 30.12049021 0.93315324 30.12049021 -2 43 C3.94 43 9.88 43 16 43 C14.43889635 34.25781959 11.21518143 26.24016625 8 18 C7.67 18 7.34 18 7 18 Z " fill="#4BAEE5" transform="translate(261,24)"/>
<path d="M0 0 C4.22936683 4.78586247 5.07791207 9.8608356 6 16 C5.01 16 4.02 16 3 16 C2.35998047 14.87658203 2.35998047 14.87658203 1.70703125 13.73046875 C-2.10066551 7.63989659 -10.79639906 4.79740285 -17.578125 3.109375 C-32.77146053 0.72477077 -47.81681268 2.46266906 -63 4 C-62.67 3.01 -62.34 2.02 -62 1 C-60.25683594 0.14038086 -60.25683594 0.14038086 -57.984375 -0.53515625 C-57.15172119 -0.7863623 -56.31906738 -1.03756836 -55.46118164 -1.29638672 C-54.5664917 -1.5492041 -53.67180176 -1.80202148 -52.75 -2.0625 C-51.83919678 -2.32562988 -50.92839355 -2.58875977 -49.98999023 -2.85986328 C-33.75456847 -7.43042968 -14.26301539 -11.37871672 0 0 Z " fill="#2C92C6" transform="translate(286,117)"/>
<path d="M0 0 C0.66 0 1.32 0 2 0 C3.00399524 2.62353518 4.00334445 5.24867795 5 7.875 C5.28617188 8.62136719 5.57234375 9.36773437 5.8671875 10.13671875 C8 15.7734375 8 15.7734375 8 18 C8.66 18 9.32 18 10 18 C10.18175781 18.78503906 10.36351563 19.57007812 10.55078125 20.37890625 C12.161093 27.30956271 12.161093 27.30956271 14.6875 33.9375 C16 37 16 37 16 42 C12.7 42 9.4 42 6 42 C2.57589003 35.2402257 0.37374732 29.59952888 0 22 C-0.33 22.33 -0.66 22.66 -1 23 C-2.66617115 23.04063832 -4.33388095 23.042721 -6 23 C-6 22.01 -6 21.02 -6 20 C-6.99 19.67 -7.98 19.34 -9 19 C-8.505 17.515 -8.505 17.515 -8 16 C-7.01 15.67 -6.02 15.34 -5 15 C-5.061875 13.948125 -5.12375 12.89625 -5.1875 11.8125 C-4.992078 7.83891936 -4.4326186 6.08755437 -2 3 C-1.34 3 -0.68 3 0 3 C0 2.01 0 1.02 0 0 Z " fill="#4AAEE6" transform="translate(70,54)"/>
<path d="M0 0 C5.4952607 1.01062266 10.83031819 2.57214516 16.2109375 4.0625 C24.01975114 5.9945776 31.43918973 6.12420803 39.4375 6.0625 C40.55060547 6.05798828 41.66371094 6.05347656 42.81054688 6.04882812 C45.54042101 6.03711193 48.27018174 6.02070699 51 6 C50.67 6.66 50.34 7.32 50 8 C50.67546875 7.77183594 51.3509375 7.54367188 52.046875 7.30859375 C52.93890625 7.02113281 53.8309375 6.73367187 54.75 6.4375 C55.63171875 6.14746094 56.5134375 5.85742188 57.421875 5.55859375 C60.07834316 4.98302565 61.47031106 5.10751629 64 6 C60.91190305 7.76462683 59.76687864 8 56 8 C56 8.66 56 9.32 56 10 C47.41007109 13.46611167 39.89434102 14.18621788 30.6875 13.75 C29.80126953 13.72292969 28.91503906 13.69585937 28.00195312 13.66796875 C19.79506511 13.29683304 11.82741566 11.77665282 4.9375 7.0625 C4.20402344 6.57910156 3.47054687 6.09570312 2.71484375 5.59765625 C0.75212893 3.76906773 0.36766141 2.61888048 0 0 Z M33 12 C33 12.33 33 12.66 33 13 C37.455 12.505 37.455 12.505 42 12 C38.16380575 11.04095144 36.67568464 11.08107884 33 12 Z " fill="#4593BA" transform="translate(154,98)"/>
<path d="M0 0 C1.093125 0.00257812 2.18625 0.00515625 3.3125 0.0078125 C4.405625 0.00523438 5.49875 0.00265625 6.625 0 C9.3125 0.1328125 9.3125 0.1328125 10.3125 1.1328125 C10.41920215 2.56347766 10.45869043 3.99924549 10.47021484 5.43383789 C10.48047699 6.34891617 10.49073914 7.26399445 10.50131226 8.20680237 C10.50861359 9.20461227 10.51591492 10.20242218 10.5234375 11.23046875 C10.55152548 13.33268982 10.58019006 15.43490325 10.609375 17.53710938 C10.65051352 20.85928986 10.68738857 24.1813307 10.71386719 27.50366211 C10.74160757 30.70456739 10.78750281 33.9048184 10.8359375 37.10546875 C10.83919037 38.08910904 10.84244324 39.07274933 10.84579468 40.0861969 C10.9526815 46.13264493 11.88379351 50.58949691 14.3125 56.1328125 C14.6425 57.1228125 14.9725 58.1128125 15.3125 59.1328125 C19.80921313 61.88886248 25.21755332 61.81319358 30.3125 61.1328125 C32.96696121 60.05031945 34.93892197 58.78399721 37.3125 57.1328125 C37 59.5078125 37 59.5078125 36.3125 62.1328125 C31.40243556 65.40618879 26.04455184 64.78925763 20.3125 64.1328125 C15.83181878 62.51921323 13.16156321 60.58080985 10.74536133 56.46020508 C9.16826528 52.79787044 8.88829894 50.18653098 8.80078125 46.21484375 C8.78278473 45.56356003 8.76478821 44.91227631 8.74624634 44.24125671 C8.69195544 42.14266864 8.65802173 40.04433324 8.625 37.9453125 C8.59223838 36.50388291 8.55846145 35.06247605 8.52368164 33.62109375 C8.28525368 23.12626364 8.19075677 12.62978394 8.3125 2.1328125 C5.3425 2.1328125 2.3725 2.1328125 -0.6875 2.1328125 C-0.76203662 9.07045176 -0.81628482 16.00785436 -0.85229492 22.94580078 C-0.86731778 25.30261296 -0.88774196 27.65939748 -0.91381836 30.01611328 C-0.95048821 33.41706192 -0.96729196 36.81763871 -0.98046875 40.21875 C-0.99595261 41.26082611 -1.01143646 42.30290222 -1.02738953 43.3765564 C-1.02958743 53.07906255 0.40842101 61.04213679 7.3125 68.1328125 C6.8175 69.1228125 6.8175 69.1228125 6.3125 70.1328125 C-3.1664874 59.9188234 -3.84762224 51.45252609 -3.8203125 37.88671875 C-3.82126923 36.83499985 -3.82222595 35.78328094 -3.82321167 34.69969177 C-3.82388877 32.49193257 -3.82206743 30.28417133 -3.81787109 28.07641602 C-3.81247847 24.68175874 -3.81785117 21.28723152 -3.82421875 17.89257812 C-3.82355862 15.74479137 -3.82227882 13.5970047 -3.8203125 11.44921875 C-3.82233673 10.42953506 -3.82436096 9.40985138 -3.82644653 8.35926819 C-3.82329437 7.42416916 -3.82014221 6.48907013 -3.81689453 5.52563477 C-3.81609894 4.69927017 -3.81530334 3.87290558 -3.81448364 3.02149963 C-3.61055542 -0.01162027 -3.06286745 0.15136264 0 0 Z " fill="#5DA9D2" transform="translate(175.6875,23.8671875)"/>
<path d="M0 0 C2.14576637 -0.02685938 4.29162645 -0.04633088 6.4375 -0.0625 C7.63246094 -0.07410156 8.82742187 -0.08570312 10.05859375 -0.09765625 C13 0 13 0 14 1 C14.10891989 2.54788365 14.1490472 4.10067971 14.16113281 5.65234375 C14.17074036 6.64427734 14.1803479 7.63621094 14.19024658 8.65820312 C14.19449646 9.74037109 14.19874634 10.82253906 14.203125 11.9375 C14.20882507 13.04673828 14.21452515 14.15597656 14.22039795 15.29882812 C14.22986963 17.65607748 14.23639049 20.01334021 14.24023438 22.37060547 C14.24988416 25.95694661 14.28086428 29.54270116 14.3125 33.12890625 C14.31903541 35.41926743 14.32428377 37.70963272 14.328125 40 C14.3404718 41.06597412 14.3528186 42.13194824 14.36553955 43.23022461 C14.33519049 53.51631654 12.02117004 61.35472595 5 69 C-0.22276843 73.72536191 -6.24208776 74.16892989 -13 75 C-13.33 74.34 -13.66 73.68 -14 73 C-9.545 72.505 -9.545 72.505 -5 72 C-5 71.34 -5 70.68 -5 70 C-4.34 70 -3.68 70 -3 70 C-3 69.34 -3 68.68 -3 68 C-2.030625 67.87625 -1.06125 67.7525 -0.0625 67.625 C1.4534375 67.315625 1.4534375 67.315625 3 67 C3.33 66.34 3.66 65.68 4 65 C4.66 65 5.32 65 6 65 C6.28875 64.2575 6.5775 63.515 6.875 62.75 C8 60 8 60 9.0625 58.125 C11.78913059 51.94463732 11.20725512 44.43772625 11.31640625 37.81640625 C11.33718735 36.76090073 11.35796844 35.7053952 11.37937927 34.61790466 C11.44444848 31.2661655 11.50356052 27.914352 11.5625 24.5625 C11.60572581 22.28189354 11.64934136 20.00129443 11.69335938 17.72070312 C11.80008589 12.14721043 11.901472 6.57364341 12 1 C8.7 1 5.4 1 2 1 C1.97494385 2.59505371 1.9498877 4.19010742 1.92407227 5.83349609 C1.83012181 11.73381012 1.7298712 17.63400301 1.62768555 23.53417969 C1.58428978 26.09111707 1.5426182 28.64808431 1.50268555 31.20507812 C1.44509531 34.87378959 1.38136862 38.54235011 1.31640625 42.2109375 C1.29969376 43.35992523 1.28298126 44.50891296 1.26576233 45.69271851 C1.24581711 46.7536673 1.22587189 47.81461609 1.20532227 48.90771484 C1.18977798 49.84481293 1.1742337 50.78191101 1.15821838 51.74740601 C1 54 1 54 0 56 C-0.99 55.67 -1.98 55.34 -3 55 C-2.67854004 53.90816406 -2.35708008 52.81632812 -2.02587891 51.69140625 C-0.72149556 46.44915068 -0.64891352 41.31731007 -0.5859375 35.9375 C-0.56657135 34.90560547 -0.5472052 33.87371094 -0.5272522 32.81054688 C-0.46785273 29.54044657 -0.42123027 26.27031031 -0.375 23 C-0.33678373 20.77212074 -0.29772991 18.54425568 -0.2578125 16.31640625 C-0.16218415 10.87773095 -0.07702264 5.43896892 0 0 Z " fill="#5DA8D0" transform="translate(216,24)"/>
<path d="M0 0 C2.29160319 -0.02692484 4.58329546 -0.04636124 6.875 -0.0625 C8.15117187 -0.07410156 9.42734375 -0.08570312 10.7421875 -0.09765625 C14 0 14 0 16 1 C17.50844421 4.26829578 18.82214587 7.45458067 19.9375 10.875 C20.7997142 13.19772624 20.7997142 13.19772624 23.125 13.8125 C23.74375 13.874375 24.3625 13.93625 25 14 C25 15.32 25 16.64 25 18 C25.825 18.2475 26.65 18.495 27.5 18.75 C31.52373471 20.18704811 35.21979024 22.02354515 39 24 C39 24.66 39 25.32 39 26 C57.25896576 28.17942062 57.25896576 28.17942062 74.9921875 24.7890625 C77.16913337 23.93353125 79.27064547 23.45837091 81.5625 23 C85.13151661 22.24927582 88.3906298 21.18752916 91.77734375 19.84765625 C95.46858264 18.43992543 99.23877143 17.26873679 102.99609375 16.05078125 C105.73828344 15.09154974 108.30131436 13.96307404 110.9375 12.75 C116.83615042 10.28661581 122.71380614 10.64529314 129 11 C129 11.33 129 11.66 129 12 C128.44876465 12.10957031 127.8975293 12.21914062 127.32958984 12.33203125 C113.51978872 15.13327724 100.57493159 19.04940095 87.42602539 24.08764648 C71.21702482 30.18335295 53.73137954 32.79297764 37 27 C27.03839121 22.3996413 19.64399856 17.16999686 15 7 C13.33743577 3.87184813 13.33743577 3.87184813 11 2 C8.28395242 1.68469509 5.74810936 1.86913765 3 2 C2.01 1.34 1.02 0.68 0 0 Z " fill="#538EAE" transform="translate(121,97)"/>
<path d="M0 0 C2.120853 2.120853 2.56873422 3.23484262 3.47265625 6.02734375 C3.73240234 6.81947266 3.99214844 7.61160156 4.25976562 8.42773438 C4.52466797 9.25595703 4.78957031 10.08417969 5.0625 10.9375 C5.33126953 11.76185547 5.60003906 12.58621094 5.87695312 13.43554688 C6.37650546 14.96908533 6.87359157 16.50343088 7.36743164 18.03881836 C7.90185821 19.69572635 8.44945882 21.34837647 9 23 C8.67 23.66 8.34 24.32 8 25 C3.71 25 -0.58 25 -5 25 C-8.09011861 18.98679621 -10.6060603 13.3838392 -13 7 C-21.58 7 -30.16 7 -39 7 C-39.66 9.97 -40.32 12.94 -41 16 C-41.84360018 18.80075259 -42.84251117 21.29919274 -44 24 C-46.72023078 25.36011539 -48.9661881 25.2062431 -52 25.25 C-53.0725 25.27578125 -54.145 25.3015625 -55.25 25.328125 C-56.1575 25.21984375 -57.065 25.1115625 -58 25 C-58.66 24.01 -59.32 23.02 -60 22 C-59.25 19.375 -59.25 19.375 -58 17 C-57.34 16.67 -56.68 16.34 -56 16 C-56 18.31 -56 20.62 -56 23 C-52.7 23 -49.4 23 -46 23 C-45.87625 22.278125 -45.7525 21.55625 -45.625 20.8125 C-45.0056319 18.02534355 -44.06952515 15.64235625 -43 13 C-42.67 11.7625 -42.34 10.525 -42 9.25 C-41.67 8.1775 -41.34 7.105 -41 6 C-38.18175808 4.59087904 -35.82748718 4.88816447 -32.6796875 4.90234375 C-31.42285156 4.90556641 -30.16601562 4.90878906 -28.87109375 4.91210938 C-27.55238281 4.92048828 -26.23367187 4.92886719 -24.875 4.9375 C-23.53515789 4.94251511 -22.195314 4.94707799 -20.85546875 4.95117188 C-17.57026794 4.96298914 -14.28515603 4.97946383 -11 5 C-11 5.66 -11 6.32 -11 7 C-10.34 7 -9.68 7 -9 7 C-8.80664062 7.66386719 -8.61328125 8.32773438 -8.4140625 9.01171875 C-6.47248648 15.59789309 -6.47248648 15.59789309 -4 22 C-0.7 22.33 2.6 22.66 6 23 C5.566875 21.700625 5.13375 20.40125 4.6875 19.0625 C4.28144531 17.83466797 4.28144531 17.83466797 3.8671875 16.58203125 C3.30475704 14.90740723 2.7274761 13.23766963 2.1328125 11.57421875 C0.73157459 7.60404468 -0.41416331 4.27968754 0 0 Z " fill="#71A6C3" transform="translate(80,73)"/>
<path d="M0 0 C0.80759766 -0.01224609 1.61519531 -0.02449219 2.44726562 -0.03710938 C12.05842567 -0.06034344 21.88015513 2.24246163 29.30859375 8.70703125 C32.03266217 11.7552098 32.5625 13.00016592 32.5625 17.1875 C31.9025 16.919375 31.2425 16.65125 30.5625 16.375 C29.5725 15.983125 28.5825 15.59125 27.5625 15.1875 C26.4075 14.671875 25.2525 14.15625 24.0625 13.625 C18.91877216 11.70022364 13.99031115 11.8540106 8.5625 12 C7.59699219 12.01353516 6.63148438 12.02707031 5.63671875 12.04101562 C3.27804575 12.07604542 0.92058229 12.12515916 -1.4375 12.1875 C-1.4375 11.8575 -1.4375 11.5275 -1.4375 11.1875 C3.80763489 10.11113681 8.86059159 10.03791427 14.1875 10.0625 C15.4559375 10.05669922 15.4559375 10.05669922 16.75 10.05078125 C17.97589844 10.05271484 17.97589844 10.05271484 19.2265625 10.0546875 C19.96342285 10.05581543 20.7002832 10.05694336 21.45947266 10.05810547 C23.60449006 10.19008355 25.49933128 10.60077001 27.5625 11.1875 C27.5625 10.5275 27.5625 9.8675 27.5625 9.1875 C25.0875 8.6925 25.0875 8.6925 22.5625 8.1875 C22.5625 7.5275 22.5625 6.8675 22.5625 6.1875 C7.0652688 0.26427942 -10.78799594 1.10820207 -26.2890625 6.6015625 C-28.74410401 7.27111928 -30.90433784 7.28527117 -33.4375 7.1875 C-30.1755964 5.0128976 -27.45179181 4.18724114 -23.6875 3.125 C-21.90085938 2.61259766 -21.90085938 2.61259766 -20.078125 2.08984375 C-13.34794143 0.42174031 -6.89405513 0.00547582 0 0 Z " fill="#4591B8" transform="translate(251.4375,95.8125)"/>
<path d="M0 0 C0.33 0.99 0.66 1.98 1 3 C1.66 3 2.32 3 3 3 C3.103125 3.99 3.20625 4.98 3.3125 6 C3.804251 9.42176739 4.82633783 12.46006085 6.1015625 15.6796875 C7.20651759 18.53335411 8.20307762 21.41508663 9.1875 24.3125 C9.53167969 25.31925781 9.87585938 26.32601562 10.23046875 27.36328125 C11 30 11 30 11 33 C4.07 33 -2.86 33 -10 33 C-10 27.03527231 -9.72577473 24.2851851 -8 19 C-7.34 19 -6.68 19 -6 19 C-5.814375 17.71029297 -5.814375 17.71029297 -5.625 16.39453125 C-5.00363808 13.01975935 -4.10004853 9.93506974 -3 6.6875 C-2.649375 5.63949219 -2.29875 4.59148438 -1.9375 3.51171875 C-1 1 -1 1 0 0 Z M0 6 C-6.06684676 18.12049021 -6.06684676 18.12049021 -9 31 C-3.06 31 2.88 31 9 31 C7.43889635 22.25781959 4.21518143 14.24016625 1 6 C0.67 6 0.34 6 0 6 Z " fill="#62A8CE" transform="translate(268,36)"/>
<path d="M0 0 C0.99 0 1.98 0 3 0 C5.88701786 6.59714293 8.53838628 13.25215629 10.875 20.0625 C11.1021167 20.70517822 11.3292334 21.34785645 11.56323242 22.01000977 C12.65763109 25.27240136 13.11789966 26.64630103 12 30 C5.07 30 -1.86 30 -9 30 C-9 21.87502997 -8.97604356 20.96406534 -5 15 C-3.521254 19.436238 -5.25166322 21.73405826 -7 26 C-1.39 26 4.22 26 10 26 C6.19465556 14.43078662 6.19465556 14.43078662 2 3 C1.01 4.32 0.02 5.64 -1 7 C-0.67 4.69 -0.34 2.38 0 0 Z " fill="#60A5CB" transform="translate(53,40)"/>
<path d="M0 0 C1.22589844 -0.01417969 2.45179688 -0.02835938 3.71484375 -0.04296875 C7.96008453 0.24929403 9.99407159 1.04538687 12.875 4.125 C13.4628125 5.1459375 13.4628125 5.1459375 14.0625 6.1875 C13.7325 7.1775 13.4025 8.1675 13.0625 9.1875 C12.5675 8.589375 12.0725 7.99125 11.5625 7.375 C7.17094251 3.5323872 2.48599274 1.83809826 -3.375 2.125 C-8.80056214 3.02613143 -13.00905769 5.36119719 -16.9375 9.1875 C-22.26594652 16.73613257 -21.71061171 26.37224921 -20.9375 35.1875 C-20.20847224 38.65350628 -19.2632618 41.90466127 -17.9375 45.1875 C-21.58861531 42.75342313 -22.74704492 40.27619881 -23.9375 36.1875 C-24.36026953 33.23636244 -24.412896 30.35299412 -24.375 27.375 C-24.37177734 26.58689941 -24.36855469 25.79879883 -24.36523438 24.98681641 C-24.21737348 18.79068004 -23.0047398 13.63732786 -19.9375 8.1875 C-19.2775 8.1875 -18.6175 8.1875 -17.9375 8.1875 C-17.6075 7.1975 -17.2775 6.2075 -16.9375 5.1875 C-11.08794767 1.50444853 -7.01394598 0.0367993 0 0 Z " fill="#4292BB" transform="translate(128.9375,33.8125)"/>
<path d="M0 0 C1.0546875 2.37109375 1.0546875 2.37109375 1.875 5.4375 C5.20918293 16.42069083 10.8058619 24.94021324 20.77734375 30.8671875 C28.47104336 34.78840523 36.47941542 35.57543479 45 36 C45 36.33 45 36.66 45 37 C33.95638498 37.54988954 22.48361947 37.50835902 13.1875 30.5625 C8.42243866 25.91597252 5.28988124 19.71625785 2 14 C1.30970703 12.89978516 1.30970703 12.89978516 0.60546875 11.77734375 C-1.4963631 8.39807346 -2.48528216 6.00357778 -2 2 C-4.64 2 -7.28 2 -10 2 C-6.97721747 -1.02278253 -3.98164552 -1.72433467 0 0 Z " fill="#4191BA" transform="translate(140,76)"/>
<path d="M0 0 C1.93166016 0.01740234 1.93166016 0.01740234 3.90234375 0.03515625 C5.19269531 0.04417969 6.48304687 0.05320312 7.8125 0.0625 C8.81152344 0.07410156 9.81054688 0.08570312 10.83984375 0.09765625 C11.82984375 2.40765625 12.81984375 4.71765625 13.83984375 7.09765625 C12.84984375 7.09765625 11.85984375 7.09765625 10.83984375 7.09765625 C10.50984375 5.44765625 10.17984375 3.79765625 9.83984375 2.09765625 C3.89984375 2.59265625 3.89984375 2.59265625 -2.16015625 3.09765625 C-6.33927593 12.78481084 -6.33927593 12.78481084 -9.41015625 22.84765625 C-10.16015625 26.09765625 -10.16015625 26.09765625 -12.16015625 29.09765625 C-12.84041262 31.09307493 -13.50506122 33.09383616 -14.16015625 35.09765625 C-15.11936411 37.45078687 -16.13657604 39.77133759 -17.16015625 42.09765625 C-17.82015625 42.09765625 -18.48015625 42.09765625 -19.16015625 42.09765625 C-18.4859373 40.0749994 -17.81081447 38.05264191 -17.1328125 36.03125 C-16.4408163 33.94414501 -15.76256736 31.85246028 -15.09375 29.7578125 C-12.78848008 22.6289745 -10.26244368 15.65257144 -7.41015625 8.72265625 C-7.10432617 7.97886719 -6.79849609 7.23507813 -6.48339844 6.46875 C-3.82945089 0.11833903 -3.82945089 0.11833903 0 0 Z " fill="#5DA6CD" transform="translate(51.16015625,23.90234375)"/>
<path d="M0 0 C0 0.33 0 0.66 0 1 C-0.55872803 0.98952637 -1.11745605 0.97905273 -1.69311523 0.96826172 C-4.2745293 0.92616621 -6.85587076 0.90050657 -9.4375 0.875 C-10.31599609 0.85824219 -11.19449219 0.84148438 -12.09960938 0.82421875 C-19.43960424 0.77004905 -27.00393164 1.16532551 -33.3125 5.3125 C-33.92738281 5.70050781 -34.54226562 6.08851562 -35.17578125 6.48828125 C-39.3604968 9.95612904 -41.81599489 14.24023641 -44.1875 19.0625 C-44.69667969 20.08472656 -45.20585938 21.10695313 -45.73046875 22.16015625 C-47.37841797 25.84649188 -48.10328669 29.09054904 -48.31640625 33.109375 C-48.35830078 33.86347656 -48.40019531 34.61757813 -48.44335938 35.39453125 C-48.48267578 36.17183594 -48.52199219 36.94914062 -48.5625 37.75 C-48.60568359 38.54277344 -48.64886719 39.33554688 -48.69335938 40.15234375 C-48.79902991 42.10137815 -48.89997966 44.05066748 -49 46 C-49.33 46 -49.66 46 -50 46 C-50.56585716 31.04831268 -50.46153273 19.63782947 -40 8 C-29.0553543 -3.12117224 -14.42858689 -3.90338583 0 0 Z " fill="#4893B9" transform="translate(142,25)"/>
<path d="M0 0 C0 0.33 0 0.66 0 1 C-0.55123535 1.10957031 -1.1024707 1.21914062 -1.67041016 1.33203125 C-14.57784387 3.95023673 -26.78174884 7.42394706 -39.08203125 12.1328125 C-52.52036934 17.2734411 -52.52036934 17.2734411 -59.0625 17.6875 C-60.00222656 17.75324219 -60.94195312 17.81898437 -61.91015625 17.88671875 C-62.59980469 17.92410156 -63.28945312 17.96148437 -64 18 C-58.98577489 14.65718326 -53.30283757 13.21982757 -47.4375 12 C-43.86848339 11.24927582 -40.6093702 10.18752916 -37.22265625 8.84765625 C-33.53141736 7.43992543 -29.76122857 6.26873679 -26.00390625 5.05078125 C-23.26171656 4.09154974 -20.69868564 2.96307404 -18.0625 1.75 C-12.16384958 -0.71338419 -6.28619386 -0.35470686 0 0 Z " fill="#4592B9" transform="translate(250,108)"/>
<path d="M0 0 C4.62 0 9.24 0 14 0 C14 0.33 14 0.66 14 1 C8.06 1.495 8.06 1.495 2 2 C-0.07459532 6.42580336 -2.02541053 10.60420051 -3.125 15.375 C-4 19 -4 19 -6 22 C-6.70410121 23.98713007 -7.36014644 25.99126113 -8 28 C-9.28373212 31.7811348 -10.60763059 35.54738348 -11.9375 39.3125 C-12.28490234 40.32634766 -12.63230469 41.34019531 -12.99023438 42.38476562 C-13.33248047 43.34705078 -13.67472656 44.30933594 -14.02734375 45.30078125 C-14.33406006 46.17903564 -14.64077637 47.05729004 -14.95678711 47.9621582 C-16 50 -16 50 -19 51 C-17.05087877 44.94380189 -14.86857619 39.02811181 -12.5 33.125 C-10.16929179 27.24018967 -8.08516178 21.4287615 -6.60546875 15.26171875 C-5.92597337 12.72347473 -5.10436974 10.38527441 -4 8 C-3.34 7.67 -2.68 7.34 -2 7 C-1.61781233 5.34385343 -1.28604898 3.67542976 -1 2 C-0.67 1.34 -0.34 0.68 0 0 Z " fill="#60A7CD" transform="translate(261,24)"/>
<path d="M0 0 C0.33 0 0.66 0 1 0 C3.66318096 10.65272384 1.54597931 22.1037294 -3.875 31.5625 C-6.15404795 35.06653622 -8.44640142 37.70061268 -12 40 C-14 39 -14 39 -15.0703125 36.05859375 C-15.41835937 34.86363281 -15.76640625 33.66867188 -16.125 32.4375 C-16.47820312 31.23996094 -16.83140625 30.04242188 -17.1953125 28.80859375 C-17.59363281 27.41833984 -17.59363281 27.41833984 -18 26 C-17.01 25.01 -16.02 24.02 -15 23 C-14.87625 24.051875 -14.7525 25.10375 -14.625 26.1875 C-14.08859218 29.45958771 -13.36119965 32.00536076 -12 35 C-11.01 34.505 -11.01 34.505 -10 34 C-9.34 34.33 -8.68 34.66 -8 35 C-7.731875 34.29875 -7.46375 33.5975 -7.1875 32.875 C-6 30 -6 30 -4.5 27.25 C-0.52758249 18.64309539 -0.46705581 9.32882522 0 0 Z " fill="#4692B9" transform="translate(161,51)"/>
<path d="M0 0 C0.495 0.45375 0.99 0.9075 1.5 1.375 C-4.25 0.5 -4.25 0.5 -6.5 -0.625 C-20.92761877 -1.53043698 -34.41731015 0.33708182 -48.5 3.375 C-48.5 4.035 -48.5 4.695 -48.5 5.375 C-47.51 5.705 -46.52 6.035 -45.5 6.375 C-51.44 6.87 -51.44 6.87 -57.5 7.375 C-57.17 6.385 -56.84 5.395 -56.5 4.375 C-54.75683594 3.51538086 -54.75683594 3.51538086 -52.484375 2.83984375 C-51.65172119 2.5886377 -50.81906738 2.33743164 -49.96118164 2.07861328 C-49.0664917 1.8257959 -48.17180176 1.57297852 -47.25 1.3125 C-46.33919678 1.04937012 -45.42839355 0.78624023 -44.48999023 0.51513672 C-31.3257296 -3.19084199 -12.41746899 -8.07135484 0 0 Z " fill="#4590B6" transform="translate(280.5,113.625)"/>
<path d="M0 0 C2.120853 2.120853 2.56873422 3.23484262 3.47265625 6.02734375 C3.86227539 7.21553711 3.86227539 7.21553711 4.25976562 8.42773438 C4.52466797 9.25595703 4.78957031 10.08417969 5.0625 10.9375 C5.33126953 11.76185547 5.60003906 12.58621094 5.87695312 13.43554688 C6.37650546 14.96908533 6.87359157 16.50343088 7.36743164 18.03881836 C7.90185821 19.69572635 8.44945882 21.34837647 9 23 C8.67 23.66 8.34 24.32 8 25 C3.71 25 -0.58 25 -5 25 C-8.17710194 18.9802279 -10.6421979 13.66557394 -12 7 C-11.01 7 -10.02 7 -9 7 C-8.80664062 7.66386719 -8.61328125 8.32773438 -8.4140625 9.01171875 C-6.47248648 15.59789309 -6.47248648 15.59789309 -4 22 C-0.7 22.33 2.6 22.66 6 23 C5.3503125 21.0509375 5.3503125 21.0509375 4.6875 19.0625 C4.41679688 18.24394531 4.14609375 17.42539063 3.8671875 16.58203125 C3.30475704 14.90740723 2.7274761 13.23766963 2.1328125 11.57421875 C0.73157459 7.60404468 -0.41416331 4.27968754 0 0 Z " fill="#5DA6CE" transform="translate(80,73)"/>
<path d="M0 0 C-3.08809695 1.76462683 -4.23312136 2 -8 2 C-8 2.66 -8 3.32 -8 4 C-15.77543964 7.1374581 -22.63897199 8.1466847 -31 8 C-31 7.67 -31 7.34 -31 7 C-29.02 6.67 -27.04 6.34 -25 6 C-25.33 5.34 -25.66 4.68 -26 4 C-21.48649253 0.47726246 -18.71658336 -0.45732667 -13 0 C-13.33 0.66 -13.66 1.32 -14 2 C-12.98679688 1.65775391 -12.98679688 1.65775391 -11.953125 1.30859375 C-11.06109375 1.02113281 -10.1690625 0.73367187 -9.25 0.4375 C-7.92742187 0.00244141 -7.92742187 0.00244141 -6.578125 -0.44140625 C-3.92165684 -1.01697435 -2.52968894 -0.89248371 0 0 Z " fill="#4493BB" transform="translate(218,104)"/>
<path d="M0 0 C1.32 0.33 2.64 0.66 4 1 C4.33 4.3 4.66 7.6 5 11 C5.66 11 6.32 11 7 11 C7.08139142 13.39652528 7.14067009 15.79025436 7.1875 18.1875 C7.22520508 19.19780273 7.22520508 19.19780273 7.26367188 20.22851562 C7.3289449 24.68883882 6.73686642 27.44965691 4 31 C3.67 31 3.34 31 3 31 C3.09539062 30.22398438 3.19078125 29.44796875 3.2890625 28.6484375 C4.24532946 19.33039431 4.86676559 8.39876425 0 0 Z " fill="#3D92BD" transform="translate(143,43)"/>
<path d="M0 0 C4.86004952 0.80102242 9.7118679 1.6442553 14.5625 2.5 C15.6752832 2.69529297 15.6752832 2.69529297 16.81054688 2.89453125 C20.54986653 3.55382358 24.28067081 4.23403914 28 5 C25.17503283 7.82496717 23.25201123 7.29994045 19.3125 7.3125 C13.64523775 7.23137355 9.88980662 6.80903785 5 4 C4.030625 3.46375 3.06125 2.9275 2.0625 2.375 C1.381875 1.92125 0.70125 1.4675 0 1 C0 0.67 0 0.34 0 0 Z " fill="#2693CA" transform="translate(160,102)"/>
<path d="M0 0 C1.30195313 0.00322266 2.60390625 0.00644531 3.9453125 0.00976562 C5.32552149 0.01812159 6.70572982 0.02658654 8.0859375 0.03515625 C9.47395676 0.04017124 10.86197772 0.04473415 12.25 0.04882812 C15.65368882 0.06064649 19.05729189 0.07712191 22.4609375 0.09765625 C22.4609375 1.74765625 22.4609375 3.39765625 22.4609375 5.09765625 C22.1309375 4.10765625 21.8009375 3.11765625 21.4609375 2.09765625 C20.71408691 2.10289307 19.96723633 2.10812988 19.19775391 2.11352539 C15.82715693 2.13426026 12.45657336 2.14730524 9.0859375 2.16015625 C7.3225 2.17272461 7.3225 2.17272461 5.5234375 2.18554688 C3.84121094 2.19038086 3.84121094 2.19038086 2.125 2.1953125 C0.56966553 2.20316772 0.56966553 2.20316772 -1.01708984 2.21118164 C-3.5390625 2.09765625 -3.5390625 2.09765625 -5.5390625 1.09765625 C-6.1990625 3.07765625 -6.8590625 5.05765625 -7.5390625 7.09765625 C-7.8690625 7.09765625 -8.1990625 7.09765625 -8.5390625 7.09765625 C-8.5390625 5.11765625 -8.5390625 3.13765625 -8.5390625 1.09765625 C-5.66887809 -0.33743596 -3.20362527 -0.01392881 0 0 Z " fill="#80A8BD" transform="translate(260.5390625,77.90234375)"/>
<path d="M0 0 C2.29160319 -0.02692484 4.58329546 -0.04636124 6.875 -0.0625 C8.15117187 -0.07410156 9.42734375 -0.08570312 10.7421875 -0.09765625 C14 0 14 0 16 1 C16.73551208 2.63818601 17.46325803 4.28065575 18.13671875 5.9453125 C19.58195622 9.38510846 21.30861567 12.67555493 23 16 C22.34 16.33 21.68 16.66 21 17 C20.61328125 16.33613281 20.2265625 15.67226562 19.828125 14.98828125 C18.2470096 12.30742965 16.62799752 9.65258302 15 7 C14.38125 5.96875 13.7625 4.9375 13.125 3.875 C9.87265882 1.00528719 7.26489345 1.79690984 3 2 C2.01 1.34 1.02 0.68 0 0 Z " fill="#5386A1" transform="translate(121,97)"/>
<path d="M0 0 C0.66 0.33 1.32 0.66 2 1 C1.01 4.96 0.02 8.92 -1 13 C5.60718405 12.56453143 5.60718405 12.56453143 11 9 C11.33 9.99 11.66 10.98 12 12 C11.67 12.66 11.34 13.32 11 14 C8.45975996 14.47574438 5.99948536 14.84007547 3.4375 15.125 C2.72658203 15.21136719 2.01566406 15.29773438 1.28320312 15.38671875 C-0.47689312 15.59934783 -2.23834164 15.80072697 -4 16 C-2.84941444 10.60204011 -1.57578241 5.29012667 0 0 Z " fill="#5CA6CF" transform="translate(241,75)"/>
<path d="M0 0 C3.19513855 4.79270782 5.0412341 10.17154514 7.1875 15.5 C7.66380859 16.65371094 8.14011719 17.80742188 8.63085938 18.99609375 C9.07623047 20.10082031 9.52160156 21.20554687 9.98046875 22.34375 C10.39192139 23.35630859 10.80337402 24.36886719 11.22729492 25.41210938 C12 28 12 28 11 31 C5.20702345 21.364349 1.04905333 11.27732335 0 0 Z " fill="#5BA7D0" transform="translate(287,56)"/>
<path d="M0 0 C1.80691678 3.61383355 2.56157766 6.05419896 3 10 C2 11 2 11 -0.65234375 11.1328125 C-1.73644531 11.13023438 -2.82054687 11.12765625 -3.9375 11.125 C-5.55978516 11.12886719 -5.55978516 11.12886719 -7.21484375 11.1328125 C-10 11 -10 11 -12 10 C-12.73075648 7.6859378 -13.40138258 5.35171131 -14 3 C-13.01 3.33 -12.02 3.66 -11 4 C-10.67 5.32 -10.34 6.64 -10 8 C-6.7 8.33 -3.4 8.66 0 9 C0 6.03 0 3.06 0 0 Z " fill="#5AA4CC" transform="translate(299,87)"/>
<path d="M0 0 C2.68582114 4.02873172 4.27088197 8.32864736 6.0625 12.8125 C6.42666016 13.70259766 6.79082031 14.59269531 7.16601562 15.50976562 C8.96673637 19.99991772 10.47876953 24.14854714 11 29 C10.34 29 9.68 29 9 29 C6.96564469 25.27034861 6 23.33094958 6 19 C5.34 18.67 4.68 18.34 4 18 C3.855625 16.948125 3.71125 15.89625 3.5625 14.8125 C3.20224886 10.99841344 3.20224886 10.99841344 1.4375 7.875 C-0.04390787 4.91218426 -0.28694086 3.25199641 0 0 Z " fill="#5DA5CD" transform="translate(276,26)"/>
<path d="M0 0 C1.67728533 5.03185599 -1.12647977 9.17426609 -3 14 C3.6 14 10.2 14 17 14 C17 14.33 17 14.66 17 15 C10.07 15 3.14 15 -4 15 C-4 6.87502997 -3.97604356 5.96406534 0 0 Z " fill="#5CA8D2" transform="translate(48,55)"/>
<path d="M0 0 C1.98 0 3.96 0 6 0 C5 3 5 3 1.9375 4.625 C-2.00422062 6.18696813 -5.7911023 6.63079845 -10 7 C-10.33 6.34 -10.66 5.68 -11 5 C-6.545 4.505 -6.545 4.505 -2 4 C-2 3.34 -2 2.68 -2 2 C-1.34 2 -0.68 2 0 2 C0 1.34 0 0.68 0 0 Z " fill="#5EA1C6" transform="translate(213,92)"/>
<path d="M0 0 C1.99954746 -0.04254356 4.00041636 -0.04080783 6 0 C6.33 0.33 6.66 0.66 7 1 C9.25543624 1.24261665 11.50945523 1.38332133 13.7734375 1.5234375 C16.39073204 2.08363037 17.3173393 2.96995128 19 5 C12.05829437 4.66944259 6.20918975 4.24571282 0 1 C0 0.67 0 0.34 0 0 Z " fill="#68A2C2" transform="translate(183,94)"/>
<path d="M0 0 C1.32 0.33 2.64 0.66 4 1 C5.13480527 4.60993172 5.10015767 7.9842327 5.0625 11.75 C5.05347656 12.92046875 5.04445312 14.0909375 5.03515625 15.296875 C5.02355469 16.18890625 5.01195312 17.0809375 5 18 C4.67 18 4.34 18 4 18 C3.87882813 17.03578125 3.75765625 16.0715625 3.6328125 15.078125 C3.46523437 13.81484375 3.29765625 12.5515625 3.125 11.25 C2.96257812 9.99703125 2.80015625 8.7440625 2.6328125 7.453125 C2.0941645 4.51383592 1.51991159 2.52892853 0 0 Z " fill="#5097BB" transform="translate(143,43)"/>
<path d="M0 0 C0.99 0 1.98 0 3 0 C5.03435531 3.72965139 6 5.66905042 6 10 C5.34 10 4.68 10 4 10 C3.34 7.69 2.68 5.38 2 3 C1.01 4.32 0.02 5.64 -1 7 C-0.67 4.69 -0.34 2.38 0 0 Z " fill="#65A4C7" transform="translate(53,40)"/>
<path d="M0 0 C4.62 0 9.24 0 14 0 C9.9330464 2.7113024 7.91725407 3.4014085 3 3 C2.01 2.01 1.02 1.02 0 0 Z " fill="#2F90C2" transform="translate(183,106)"/>
<path d="M0 0 C1.875 0.3125 1.875 0.3125 4 1 C4.66 1.99 5.32 2.98 6 4 C6.66 3.01 7.32 2.02 8 1 C8.33 3.31 8.66 5.62 9 8 C8.01 8 7.02 8 6 8 C4.94228261 6.36935236 3.94726954 4.69719127 3 3 C1.41754725 1.24850835 1.41754725 1.24850835 0 0 Z " fill="#5095B8" transform="translate(283,125)"/>
<path d="M0 0 C3.33193619 2.69728168 4.60371996 6.02060187 6 10 C5.6875 12.4375 5.6875 12.4375 5 14 C4.67 12.02 4.34 10.04 4 8 C3.34 8 2.68 8 2 8 C0.23537317 4.91190305 0 3.76687864 0 0 Z " fill="#4191BA" transform="translate(155,37)"/>
<path d="M0 0 C5.35048061 0.37328935 7.50912907 1.9957657 11 6 C10.67 6.99 10.34 7.98 10 9 C6 5 6 5 4.4375 3.375 C2.84160269 1.76853115 2.84160269 1.76853115 0 0 Z " fill="#418CB2" transform="translate(132,34)"/>
<path d="M0 0 C4.20763224 1.5027258 5.8027758 4.23332995 8 8 C8 8.66 8 9.32 8 10 C7.34 10 6.68 10 6 10 C5.731875 9.38125 5.46375 8.7625 5.1875 8.125 C4.04443152 5.7004767 4.04443152 5.7004767 1 4 C0.3125 1.875 0.3125 1.875 0 0 Z " fill="#4293BB" transform="translate(282,115)"/>
<path d="M0 0 C0.66 2.64 1.32 5.28 2 8 C0.68 7.67 -0.64 7.34 -2 7 C-2 6.01 -2 5.02 -2 4 C-2.99 3.67 -3.98 3.34 -5 3 C-4.34 3 -3.68 3 -3 3 C-3 2.34 -3 1.68 -3 1 C-1 0 -1 0 0 0 Z " fill="#3592C1" transform="translate(281,117)"/>
<path d="M0 0 C0.33 0 0.66 0 1 0 C1.16789126 2.43742131 1.33436133 4.87492546 1.5 7.3125 C1.54769531 8.00279297 1.59539062 8.69308594 1.64453125 9.40429688 C1.83879489 12.27662359 2 15.12013788 2 18 C1.34 18 0.68 18 0 18 C0 12.06 0 6.12 0 0 Z " fill="#3591BF" transform="translate(93,54)"/>
<path d="M0 0 C0.99 0 1.98 0 3 0 C2.25 7.75 2.25 7.75 0 10 C0 6.7 0 3.4 0 0 Z " fill="#57A9D5" transform="translate(49,45)"/>
<path d="M0 0 C3.5218253 1.95656961 6.34442785 3.95100975 9 7 C9 7.66 9 8.32 9 9 C7.0625 8.1875 7.0625 8.1875 5 7 C4.67 6.01 4.34 5.02 4 4 C3.34 4 2.68 4 2 4 C2 3.34 2 2.68 2 2 C1.34 2 0.68 2 0 2 C0 1.34 0 0.68 0 0 Z " fill="#4692B7" transform="translate(146,28)"/>
<path d="M0 0 C4.29 0 8.58 0 13 0 C12.67 0.99 12.34 1.98 12 3 C7.66831683 3.26252625 4.1196377 2.29243536 0 1 C0 0.67 0 0.34 0 0 Z " fill="#57B1E5" transform="translate(263,25)"/>
<path d="M0 0 C3.63 0.33 7.26 0.66 11 1 C11 1.33 11 1.66 11 2 C5.06 2.495 5.06 2.495 -1 3 C-0.67 2.01 -0.34 1.02 0 0 Z " fill="#5799BC" transform="translate(224,118)"/>
<path d="M0 0 C4.875 0.875 4.875 0.875 6 2 C6.66 1.34 7.32 0.68 8 0 C8.33 1.65 8.66 3.3 9 5 C5.54074837 3.7508258 2.85306797 2.32472205 0 0 Z " fill="#619BB9" transform="translate(275,108)"/>
<path d="M0 0 C3.69418201 1.231394 5.35109746 3.20791354 8 6 C4.62537285 5.45276317 2.91765 4.9451 0 3 C0 2.01 0 1.02 0 0 Z " fill="#3A92BE" transform="translate(158,101)"/>
<path d="M0 0 C2.70272533 2.87164566 3.94791837 4.30991841 4.25 8.3125 C4.1675 9.199375 4.085 10.08625 4 11 C0 5 0 5 0 0 Z " fill="#5EA4CB" transform="translate(269,42)"/>
<path d="" fill="#F9F4EE" transform="translate(0,0)"/>
<path d="" fill="#F9F4EE" transform="translate(0,0)"/>
<path d="" fill="#F9F4EE" transform="translate(0,0)"/>
<path d="" fill="#F9F4EE" transform="translate(0,0)"/>
<path d="" fill="#F9F4EE" transform="translate(0,0)"/>
<path d="" fill="#F9F4EE" transform="translate(0,0)"/>
<path d="" fill="#F9F4EE" transform="translate(0,0)"/>
<path d="" fill="#F9F4EE" transform="translate(0,0)"/>
<path d="" fill="#F9F4EE" transform="translate(0,0)"/>
<path d="" fill="#F9F4EE" transform="translate(0,0)"/>
<path d="" fill="#F9F4EE" transform="translate(0,0)"/>
<path d="" fill="#F9F4EE" transform="translate(0,0)"/>
<path d="" fill="#F9F4EE" transform="translate(0,0)"/>
<path d="" fill="#F9F4EE" transform="translate(0,0)"/>
<path d="" fill="#F9F4EE" transform="translate(0,0)"/>
<path d="" fill="#F9F4EE" transform="translate(0,0)"/>
<path d="" fill="#F9F4EE" transform="translate(0,0)"/>
<path d="" fill="#F9F4EE" transform="translate(0,0)"/>
<path d="" fill="#F9F4EE" transform="translate(0,0)"/>
<path d="" fill="#F9F4EE" transform="translate(0,0)"/>
<path d="" fill="#F9F4EE" transform="translate(0,0)"/>
<path d="" fill="#F9F4EE" transform="translate(0,0)"/>
<path d="" fill="#F9F4EE" transform="translate(0,0)"/>
<path d="" fill="#F9F4EE" transform="translate(0,0)"/>
<path d="" fill="#F9F4EE" transform="translate(0,0)"/>
<path d="" fill="#F9F4EE" transform="translate(0,0)"/>
<path d="" fill="#F9F4EE" transform="translate(0,0)"/>
<path d="" fill="#F9F4EE" transform="translate(0,0)"/>
<path d="" fill="#F9F4EE" transform="translate(0,0)"/>
<path d="" fill="#F9F4EE" transform="translate(0,0)"/>
<path d="" fill="#F9F4EE" transform="translate(0,0)"/>
<path d="" fill="#F9F4EE" transform="translate(0,0)"/>
</svg>
